<svg version="1.1" id="Layer_1" xmlns="http://www.w3.org/2000/svg" xmlns:xlink="http://www.w3.org/1999/xlink" x="0px" y="0px"
	 width="100%" viewBox="0 0 512 512" enable-background="new 0 0 512 512" xml:space="preserve">
<path fill="white" opacity="1.000000" stroke="none"
	d="
M513.000000,203.000000
	C513.000000,306.641479 513.000000,409.782959 513.000000,512.962219
	C342.400177,512.962219 171.800339,512.962219 1.100256,512.962219
	C1.100256,342.441895 1.100256,171.883682 1.100256,1.162741
	C171.666534,1.162741 342.333252,1.162741 513.000000,1.162741
	C513.000000,68.199615 513.000000,135.349808 513.000000,203.000000
M415.001587,168.537735
	C414.863312,168.202820 414.613068,168.035233 414.025665,167.252106
	C402.127380,127.338326 390.229065,87.424545 378.315826,47.460655
	C376.487976,47.723351 374.906525,47.749207 373.450806,48.190094
	C351.746490,54.763592 330.062836,61.405258 308.365997,68.003502
	C287.601044,74.318344 266.826447,80.601517 246.011292,85.975494
	C246.011292,76.509888 246.011292,67.044281 246.011292,57.674625
	C261.463440,52.380066 266.661621,40.707104 264.827454,28.420391
	C263.161804,17.262764 252.042542,8.196380 241.841370,7.736878
	C226.705276,7.055089 216.586426,17.595442 215.215256,27.474075
	C213.374100,40.738834 217.604279,51.747314 233.864059,57.625957
	C233.864059,68.363495 233.864059,79.156502 233.193893,90.259102
	C231.131958,90.894753 229.070023,91.530403 226.251587,92.010910
	C205.689590,83.727325 185.127594,75.443741 164.169724,67.000664
	C157.423615,83.631737 150.670151,100.280930 143.219650,117.242149
	C140.929977,117.905540 138.634094,118.548256 136.351593,119.235481
	C110.042686,127.156601 83.728493,135.060638 57.461990,143.120087
	C56.632507,143.374603 55.592262,145.446991 55.842079,146.337616
	C59.447586,159.191406 63.200363,172.004990 67.030960,184.794327
	C74.037651,208.187836 81.119324,231.558868 87.862053,255.625198
	C82.971367,267.253571 77.949615,278.828888 73.216362,290.521027
	C62.225536,317.670654 51.398945,344.886780 40.449902,372.053406
	C37.371346,379.691864 37.219753,379.809174 44.893726,382.949707
	C63.905575,390.730255 83.002441,398.302948 102.021912,406.065063
	C113.998276,410.952789 125.896606,416.031677 137.994461,421.804352
	C142.531601,436.857574 147.068756,451.910797 151.695038,467.259766
	C171.159760,461.441864 190.577057,455.638153 210.667358,450.172913
	C257.175476,469.035919 303.683563,487.898956 350.186279,506.759766
	C353.441406,498.703949 356.232422,491.808716 359.014313,484.909790
	C366.699890,465.850037 374.338257,446.771057 382.081451,427.734711
	C386.654541,416.491852 391.391235,405.315582 396.830414,393.998047
	C406.351044,391.075256 415.858398,388.108459 425.395203,385.239441
	C441.877777,380.280975 458.378632,375.383270 474.992462,370.424042
	C468.326599,348.098724 461.638214,325.782043 455.006165,303.448639
	C451.894012,292.968567 448.890472,282.456268 445.985016,271.198303
	C451.319946,257.817932 456.627533,244.426605 461.997803,231.060440
	C466.925476,218.795776 471.920807,206.558289 477.102509,193.775604
	C456.148193,185.394287 435.578369,177.166733 414.996246,169.005676
	C414.996246,169.005676 415.063385,169.013840 415.001587,168.537735
z"/>
<path fill="#FFDC70" opacity="1.000000" stroke="none"
	d="
M88.169731,254.939285
	C81.119324,231.558868 74.037651,208.187836 67.030960,184.794327
	C63.200363,172.004990 59.447586,159.191406 55.842079,146.337616
	C55.592262,145.446991 56.632507,143.374603 57.461990,143.120087
	C83.728493,135.060638 110.042686,127.156601 136.351593,119.235481
	C138.634094,118.548256 140.929977,117.905540 143.981125,117.162628
	C146.526337,116.745079 148.355774,116.560570 150.086838,116.045509
	C169.818710,110.174606 189.553879,104.313354 209.245377,98.309174
	C215.233887,96.483192 221.090866,94.225838 227.008087,92.166061
	C229.070023,91.530403 231.131958,90.894753 233.737350,90.472534
	C234.445404,99.476082 234.623306,108.265968 234.768005,117.056404
	C234.825104,120.524529 236.161789,122.995201 239.944260,122.990631
	C243.698639,122.986092 245.139877,120.564308 245.143768,117.076660
	C245.152313,109.425751 245.081177,101.773781 245.195816,94.124535
	C245.231964,91.712135 245.755569,89.307037 246.056091,86.898605
	C266.826447,80.601517 287.601044,74.318344 308.365997,68.003502
	C330.062836,61.405258 351.746490,54.763592 373.450806,48.190094
	C374.906525,47.749207 376.487976,47.723351 378.315826,47.460655
	C390.229065,87.424545 402.127380,127.338326 414.203949,167.858170
	C414.505188,168.776184 414.732239,168.959396 415.063385,169.013840
	C415.063385,169.013840 414.996246,169.005676 414.933350,169.386719
	C415.172852,171.389969 415.329865,173.055588 415.799316,174.627930
	C423.772308,201.331024 431.737244,228.036743 439.823944,254.705505
	C441.589722,260.528931 443.820892,266.211243 445.837738,271.958557
	C448.890472,282.456268 451.894012,292.968567 455.006165,303.448639
	C461.638214,325.782043 468.326599,348.098724 474.992462,370.424042
	C458.378632,375.383270 441.877777,380.280975 425.395203,385.239441
	C415.858398,388.108459 406.351044,391.075256 396.046600,394.018555
	C392.688721,394.691315 390.086700,395.249847 387.544739,396.009521
	C335.905579,411.442383 284.265350,426.871796 232.648300,442.378448
	C225.037247,444.664948 217.542770,447.339478 209.994370,449.834442
	C190.577057,455.638153 171.159760,461.441864 151.695038,467.259766
	C147.068756,451.910797 142.531601,436.857574 137.946747,421.023010
	C137.104050,417.191132 136.401947,414.112885 135.499985,411.094299
	C123.971474,372.511444 112.460388,333.923279 100.839531,295.368195
	C96.764206,281.847290 92.401314,268.413086 88.169731,254.939285
M292.007446,157.502563
	C281.970642,160.514221 271.937805,163.539307 261.896240,166.535004
	C230.976181,175.759506 200.051529,184.968735 169.131195,194.192352
	C155.742874,198.186111 142.350906,202.168076 128.980957,206.222549
	C124.070236,207.711761 122.111229,212.535370 125.576942,215.146027
	C127.297089,216.441788 130.639023,216.693787 132.852264,216.053223
	C153.782074,209.995346 174.617096,203.610855 195.497955,197.382599
	C247.934784,181.741974 300.380829,166.132172 352.824799,150.515549
	C356.507233,149.419006 359.634827,147.490509 358.316650,143.176514
	C356.987915,138.828003 353.364410,139.103317 349.656586,140.220383
	C330.704926,145.929916 311.731354,151.566803 292.007446,157.502563
M326.274689,215.771896
	C340.604370,211.443298 354.941132,207.137939 369.258911,202.770264
	C372.971558,201.637711 375.136475,199.097610 373.684662,195.228607
	C372.387695,191.772263 369.376465,191.773636 366.125610,192.764572
	C354.035095,196.450043 341.897217,199.979843 329.785675,203.596619
	C297.912872,213.114578 266.043365,222.643494 234.174866,232.175674
	C204.536926,241.040665 174.909027,249.939346 145.256592,258.755615
	C141.602005,259.842194 138.911774,261.600983 140.212784,265.767609
	C141.421097,269.637421 144.268951,270.316406 148.179916,269.139923
	C207.268097,251.365189 266.387634,233.694748 326.274689,215.771896
M329.943848,318.486633
	C324.359467,320.134766 318.771027,321.769135 313.191437,323.433289
	C282.263275,332.657776 251.333893,341.878082 220.412048,351.123688
	C205.587402,355.556244 190.783936,360.059662 175.958176,364.488464
	C172.642578,365.478943 170.382675,367.513214 171.395737,370.991913
	C172.425522,374.528046 175.334427,375.693817 178.989594,374.548218
	C181.052185,373.901733 183.160461,373.402405 185.231384,372.780884
	C212.480011,364.602966 239.716522,356.384521 266.974182,348.236786
	C310.807465,335.134338 354.655365,322.080750 398.490723,308.985260
	C400.075897,308.511719 402.027985,308.212463 403.034698,307.119049
	C404.340729,305.700562 405.921326,303.215424 405.459900,301.830292
	C404.909790,300.179016 402.477356,298.781982 400.564972,298.083069
	C399.196533,297.582916 397.281738,298.210358 395.713623,298.679016
	C374.033630,305.158905 352.371429,311.698425 329.943848,318.486633
M319.597260,264.057587
	C305.725922,268.210236 291.855530,272.366089 277.983032,276.514893
	C249.441345,285.050598 220.896866,293.576874 192.357101,302.118958
	C181.514832,305.364105 170.623672,308.467377 159.901138,312.070770
	C158.031189,312.699158 156.239868,315.318756 155.676056,317.366608
	C155.375076,318.459869 157.491638,320.951843 159.033356,321.618408
	C160.659149,322.321289 163.015564,321.992310 164.854523,321.446381
	C198.200211,311.546387 231.511566,301.530823 264.839386,291.570526
	C292.584473,283.278656 320.348724,275.050964 348.089691,266.745422
	C360.526733,263.021851 372.947662,259.241364 385.333923,255.353027
	C389.635986,254.002518 391.107880,251.117233 389.399902,247.913513
	C387.634583,244.602188 384.765778,244.646179 381.615723,245.591873
	C361.212006,251.717377 340.799164,257.812653 319.597260,264.057587
z"/>
<path fill="#FF725C" opacity="1.000000" stroke="none"
	d="
M210.330872,450.003662
	C217.542770,447.339478 225.037247,444.664948 232.648300,442.378448
	C284.265350,426.871796 335.905579,411.442383 387.544739,396.009521
	C390.086700,395.249847 392.688721,394.691315 395.658569,394.074219
	C391.391235,405.315582 386.654541,416.491852 382.081451,427.734711
	C374.338257,446.771057 366.699890,465.850037 359.014313,484.909790
	C356.232422,491.808716 353.441406,498.703949 350.186279,506.759766
	C303.683563,487.898956 257.175476,469.035919 210.330872,450.003662
z"/>
<path fill="#FF725C" opacity="1.000000" stroke="none"
	d="
M88.015892,255.282242
	C92.401314,268.413086 96.764206,281.847290 100.839531,295.368195
	C112.460388,333.923279 123.971474,372.511444 135.499985,411.094299
	C136.401947,414.112885 137.104050,417.191132 137.864487,420.633240
	C125.896606,416.031677 113.998276,410.952789 102.021912,406.065063
	C83.002441,398.302948 63.905575,390.730255 44.893726,382.949707
	C37.219753,379.809174 37.371346,379.691864 40.449902,372.053406
	C51.398945,344.886780 62.225536,317.670654 73.216362,290.521027
	C77.949615,278.828888 82.971367,267.253571 88.015892,255.282242
z"/>
<path fill="#FF725C" opacity="1.000000" stroke="none"
	d="
M445.911377,271.578430
	C443.820892,266.211243 441.589722,260.528931 439.823944,254.705505
	C431.737244,228.036743 423.772308,201.331024 415.799316,174.627930
	C415.329865,173.055588 415.172852,171.389969 414.939514,169.353455
	C435.578369,177.166733 456.148193,185.394287 477.102509,193.775604
	C471.920807,206.558289 466.925476,218.795776 461.997803,231.060440
	C456.627533,244.426605 451.319946,257.817932 445.911377,271.578430
z"/>
<path fill="#4A82A8" opacity="1.000000" stroke="none"
	d="
M246.033691,86.437042
	C245.755569,89.307037 245.231964,91.712135 245.195816,94.124535
	C245.081177,101.773781 245.152313,109.425751 245.143768,117.076660
	C245.139877,120.564308 243.698639,122.986092 239.944260,122.990631
	C236.161789,122.995201 234.825104,120.524529 234.768005,117.056404
	C234.623306,108.265968 234.445404,99.476082 234.072433,90.317749
	C233.864059,79.156502 233.864059,68.363495 233.864059,57.625957
	C217.604279,51.747314 213.374100,40.738834 215.215256,27.474075
	C216.586426,17.595442 226.705276,7.055089 241.841370,7.736878
	C252.042542,8.196380 263.161804,17.262764 264.827454,28.420391
	C266.661621,40.707104 261.463440,52.380066 246.011292,57.674625
	C246.011292,67.044281 246.011292,76.509888 246.033691,86.437042
M253.012802,34.743359
	C254.093201,27.018717 248.704971,20.193264 240.613983,19.037350
	C235.044205,18.241629 227.564224,24.720129 226.232147,31.493618
	C225.286621,36.301582 231.124420,44.833279 236.117722,45.940948
	C244.170456,47.727287 251.073792,43.467793 253.012802,34.743359
z"/>
<path fill="#FF735C" opacity="1.000000" stroke="none"
	d="
M226.629837,92.088486
	C221.090866,94.225838 215.233887,96.483192 209.245377,98.309174
	C189.553879,104.313354 169.818710,110.174606 150.086838,116.045509
	C148.355774,116.560570 146.526337,116.745079 144.329651,117.006622
	C150.670151,100.280930 157.423615,83.631737 164.169724,67.000664
	C185.127594,75.443741 205.689590,83.727325 226.629837,92.088486
z"/>
<path fill="#FF725C" opacity="1.000000" stroke="none"
	d="
M415.032471,168.775787
	C414.732239,168.959396 414.505188,168.776184 414.316589,168.249603
	C414.613068,168.035233 414.863312,168.202820 415.032471,168.775787
z"/>
<path fill="#CDB05B" opacity="1.000000" stroke="none"
	d="
M292.386475,157.365845
	C311.731354,151.566803 330.704926,145.929916 349.656586,140.220383
	C353.364410,139.103317 356.987915,138.828003 358.316650,143.176514
	C359.634827,147.490509 356.507233,149.419006 352.824799,150.515549
	C300.380829,166.132172 247.934784,181.741974 195.497955,197.382599
	C174.617096,203.610855 153.782074,209.995346 132.852264,216.053223
	C130.639023,216.693787 127.297089,216.441788 125.576942,215.146027
	C122.111229,212.535370 124.070236,207.711761 128.980957,206.222549
	C142.350906,202.168076 155.742874,198.186111 169.131195,194.192352
	C200.051529,184.968735 230.976181,175.759506 261.896240,166.535004
	C271.937805,163.539307 281.970642,160.514221 292.386475,157.365845
z"/>
<path fill="#CDB05B" opacity="1.000000" stroke="none"
	d="
M325.887268,215.885880
	C266.387634,233.694748 207.268097,251.365189 148.179916,269.139923
	C144.268951,270.316406 141.421097,269.637421 140.212784,265.767609
	C138.911774,261.600983 141.602005,259.842194 145.256592,258.755615
	C174.909027,249.939346 204.536926,241.040665 234.174866,232.175674
	C266.043365,222.643494 297.912872,213.114578 329.785675,203.596619
	C341.897217,199.979843 354.035095,196.450043 366.125610,192.764572
	C369.376465,191.773636 372.387695,191.772263 373.684662,195.228607
	C375.136475,199.097610 372.971558,201.637711 369.258911,202.770264
	C354.941132,207.137939 340.604370,211.443298 325.887268,215.885880
z"/>
<path fill="#CDB05B" opacity="1.000000" stroke="none"
	d="
M330.324371,318.354980
	C352.371429,311.698425 374.033630,305.158905 395.713623,298.679016
	C397.281738,298.210358 399.196533,297.582916 400.564972,298.083069
	C402.477356,298.781982 404.909790,300.179016 405.459900,301.830292
	C405.921326,303.215424 404.340729,305.700562 403.034698,307.119049
	C402.027985,308.212463 400.075897,308.511719 398.490723,308.985260
	C354.655365,322.080750 310.807465,335.134338 266.974182,348.236786
	C239.716522,356.384521 212.480011,364.602966 185.231384,372.780884
	C183.160461,373.402405 181.052185,373.901733 178.989594,374.548218
	C175.334427,375.693817 172.425522,374.528046 171.395737,370.991913
	C170.382675,367.513214 172.642578,365.478943 175.958176,364.488464
	C190.783936,360.059662 205.587402,355.556244 220.412048,351.123688
	C251.333893,341.878082 282.263275,332.657776 313.191437,323.433289
	C318.771027,321.769135 324.359467,320.134766 330.324371,318.354980
z"/>
<path fill="#CDB05A" opacity="1.000000" stroke="none"
	d="
M319.993286,263.987732
	C340.799164,257.812653 361.212006,251.717377 381.615723,245.591873
	C384.765778,244.646179 387.634583,244.602188 389.399902,247.913513
	C391.107880,251.117233 389.635986,254.002518 385.333923,255.353027
	C372.947662,259.241364 360.526733,263.021851 348.089691,266.745422
	C320.348724,275.050964 292.584473,283.278656 264.839386,291.570526
	C231.511566,301.530823 198.200211,311.546387 164.854523,321.446381
	C163.015564,321.992310 160.659149,322.321289 159.033356,321.618408
	C157.491638,320.951843 155.375076,318.459869 155.676056,317.366608
	C156.239868,315.318756 158.031189,312.699158 159.901138,312.070770
	C170.623672,308.467377 181.514832,305.364105 192.357101,302.118958
	C220.896866,293.576874 249.441345,285.050598 277.983032,276.514893
	C291.855530,272.366089 305.725922,268.210236 319.993286,263.987732
z"/>
<path fill="#000000" opacity="1.000000" stroke="none"
	d="
M253.006653,35.133644
	C251.073792,43.467793 244.170456,47.727287 236.117722,45.940948
	C231.124420,44.833279 225.286621,36.301582 226.232147,31.493618
	C227.564224,24.720129 235.044205,18.241629 240.613983,19.037350
	C248.704971,20.193264 254.093201,27.018717 253.006653,35.133644
z"/>
</svg>